Coordinates
version=1
nRows=7
nColumns=40
inDegrees=yes

Units are S.I. units (second, meters, Newtons, ...)
If the header above contains a line with 'inDegrees', this indicates whether rotational values are in degrees (yes) or radians (no).

endheader
time	pelvis_tilt	pelvis_list	pelvis_rotation	pelvis_tx	pelvis_ty	pelvis_tz	hip_flexion_r	hip_adduction_r	hip_rotation_r	knee_angle_r	knee_angle_r_beta	ankle_angle_r	subtalar_angle_r	mtp_angle_r	hip_flexion_l	hip_adduction_l	hip_rotation_l	knee_angle_l	knee_angle_l_beta	ankle_angle_l	subtalar_angle_l	mtp_angle_l	lumbar_extension	lumbar_bending	lumbar_rotation	arm_flex_r	arm_add_r	arm_rot_r	elbow_flex_r	pro_sup_r	wrist_flex_r	wrist_dev_r	arm_flex_l	arm_add_l	arm_rot_l	elbow_flex_l	pro_sup_l	wrist_flex_l	wrist_dev_l
      1.85000000	     -3.19803589	     10.95944401	    -89.91294317	      0.17427986	      0.94458971	      1.74280934	    -10.12741781	      7.76454672	      0.16349857	      5.80077425	      0.10124261	     14.35062075	      0.00000000	      0.00000000	     34.76521144	     -1.54354810	      0.86017777	     -2.24764824	     -0.03922886	     -2.66864429	      0.00000000	      0.00000000	      2.11331620	      1.05506981	      0.16099428	      0.00000000	      0.00000000	      0.00000000	      0.00000000	      0.00000000	      0.00000000	      0.00000000	      0.00000000	      0.00000000	      0.00000000	      0.00000000	      0.00000000	      0.00000000	      0.00000000
      1.86000000	     -2.81698393	     11.07555775	    -89.90941759	      0.17494256	      0.94401595	      1.75872998	    -10.15445621	      7.26912385	      0.51097956	      7.22224354	      0.12605193	     13.58252048	     -0.00000000	     -0.00000000	     34.81781121	     -1.00121830	      1.07303663	     -1.20016871	     -0.02094690	     -3.39290501	     -0.00000000	     -0.00000000	      2.20250213	      0.55954828	      0.10900055	     -0.00000000	      0.00000000	     -0.00000000	      0.00000000	      0.00000000	     -0.00000000	      0.00000000	     -0.00000000	     -0.00000000	      0.00000000	      0.00000000	      0.00000000	      0.00000000	      0.00000000
      1.87000000	     -2.03036568	     11.21567014	    -89.90667257	      0.17593252	      0.94384419	      1.77502788	     -9.80163757	      6.26381249	     -0.29319673	      9.24227935	      0.16130821	     12.61317087	      0.00000000	      0.00000000	     34.74148330	     -0.05952229	      0.39360120	     -0.26368198	     -0.00460212	     -5.49000964	      0.00000000	      0.00000000	      2.39501980	     -0.39426573	      0.03189762	      0.00000000	      0.00000000	      0.00000000	      0.00000000	      0.00000000	      0.00000000	      0.00000000	      0.00000000	      0.00000000	      0.00000000	      0.00000000	      0.00000000	      0.00000000	      0.00000000
      1.88000000	     -1.36295993	     11.25284106	    -89.90163548	      0.17680892	      0.94424505	      1.79128509	     -9.43684633	      5.40655518	     -0.66137018	     11.38987092	      0.19879075	     11.23358639	      0.00000000	      0.00000000	     34.60919313	      0.71467846	      0.10737665	      0.93184899	      0.01626383	     -7.04483565	      0.00000000	      0.00000000	      2.44162112	     -1.21002791	     -0.05065790	      0.00000000	      0.00000000	      0.00000000	      0.00000000	      0.00000000	      0.00000000	      0.00000000	      0.00000000	      0.00000000	      0.00000000	      0.00000000	      0.00000000	      0.00000000	      0.00000000
      1.89000000	     -0.66863996	     11.23491766	    -89.89446054	      0.17770164	      0.94512067	      1.80758081	     -8.90506943	      4.49914407	     -1.13266259	     13.84718566	      0.24167898	      9.44408337	      0.00000000	      0.00000000	     34.41305207	      1.47759770	     -0.17899525	      2.21750775	      0.03870281	     -8.49601943	      0.00000000	      0.00000000	      2.42678189	     -2.04738444	     -0.15804839	      0.00000000	      0.00000000	      0.00000000	      0.00000000	      0.00000000	      0.00000000	      0.00000000	      0.00000000	      0.00000000	      0.00000000	      0.00000000	      0.00000000	      0.00000000	      0.00000000
      1.90000000	      0.06389644	     11.16860580	    -89.88658950	      0.17866005	      0.94643566	      1.82390842	     -8.20253972	      3.51987190	     -1.65671361	     16.60188436	      0.28975754	      7.28169025	      0.00000000	      0.00000000	     34.14014614	      2.25042265	     -0.46763481	      3.53008145	      0.06161154	     -9.71809850	      0.00000000	      0.00000000	      2.36007045	     -2.92696259	     -0.26059489	      0.00000000	      0.00000000	      0.00000000	      0.00000000	      0.00000000	      0.00000000	      0.00000000	      0.00000000	      0.00000000	      0.00000000	      0.00000000	      0.00000000	      0.00000000	      0.00000000
      1.91000000	      0.80813792	     11.04657867	    -89.87591515	      0.17964207	      0.94814326	      1.84018803	     -7.32092701	      2.49333515	     -2.22470294	     19.66292398	      0.34318276	      4.71631904	     -0.00000000	      0.00000000	     33.80049931	      3.01018229	     -0.73857893	      4.87132080	      0.08502059	    -10.62556844	     -0.00000000	     -0.00000000	      2.23253800	     -3.80672605	     -0.39670227	     -0.00000000	      0.00000000	     -0.00000000	      0.00000000	      0.00000000	     -0.00000000	     -0.00000000	      0.00000000	      0.00000000	      0.00000000	      0.00000000	      0.00000000	      0.00000000	     -0.00000000
